/* XPM */
static char *_b5068bef7c64df28e6a8da2f6ff48eaWVBQKWFPlewFuLH5[] = {
/* columns rows colors chars-per-pixel */
"50 50 133 2 ",
"   c continue",
".  c #236BAF",
"X  c #256DB1",
"o  c #296FB1",
"O  c #2770B2",
"+  c #2E75B5",
"@  c #2F7DBC",
"#  c #3177B6",
"$  c #3379B7",
"%  c #347CBA",
"&  c #397FBB",
"*  c #3381BF",
"=  c #3B83BE",
"-  c #4285BF",
";  c #3582C0",
":  c #3D86C1",
">  c #3E89C3",
",  c #4287C0",
"<  c #438CC4",
"1  c #498EC4",
"2  c #4790C7",
"3  c #4C91C6",
"4  c #4790C8",
"5  c #4C93C9",
"6  c #5293C6",
"7  c #5296CA",
"8  c #5897C9",
"9  c #5499CC",
"0  c #5A9CCD",
"q  c #599FD0",
"w  c #56A4D4",
"e  c #5DA1D1",
"r  c #5CA9D7",
"t  c #63A0CF",
"y  c #64A5D3",
"u  c #69A6D2",
"i  c #66A9D5",
"p  c #6AAAD5",
"a  c #67AFDA",
"s  c #6EAFD9",
"d  c #71AED7",
"f  c #72AFD8",
"g  c #6DB0DA",
"h  c #74B4DB",
"j  c #7AB4DB",
"k  c #77B8DE",
"l  c #7BB9DE",
"z  c #7FBBE0",
"x  c #83BADE",
"c  c #89BDDF",
"v  c #85BEE0",
"b  c #85BFE1",
"n  c #89BFE0",
"m  c #89BFE0",
"M  c #8EC0E1",
"N  c #8CC3E3",
"B  c #8DC1E2",
"V  c #90C1E1",
"C  c #90C2E1",
"Z  c #91C2E1",
"A  c #92C3E2",
"S  c #97C5E3",
"D  c #93C5E4",
"F  c #92C3E2",
"G  c #98C6E3",
"H  c #9AC6E3",
"J  c #96C8E5",
"K  c #96C8E5",
"L  c #99C9E6",
"P  c #9CC9E5",
"I  c #9DC9E5",
"U  c #9CCAE6",
"Y  c #9ECAE6",
"T  c #9FCAE6",
"R  c #9DC9E5",
"E  c #A4CDE7",
"W  c #A5CEE7",
"Q  c #A7D0E9",
"!  c #A7D1E9",
"~  c #A9D0E9",
"^  c #ABD1E9",
"/  c #A8D1EA",
"(  c #A9D1EA",
")  c #ACD2EA",
"_  c #AED3EB",
"`  c #ACD2EA",
"'  c #B0D4EB",
"]  c #B1D5EB",
"[  c #B2D6EC",
"{  c #B2D7EC",
"}  c #B3D7EC",
"|  c #B1D5EB",
" . c #B6D8ED",
".. c #B7D8ED",
"X. c #B7D8ED",
"o. c #B8D9ED",
"O. c #BCDAEE",
"+. c #BDDCEE",
"@. c #BCDCEF",
"#. c #BEDCEF",
"$. c #BEDDEF",
"%. c #BDDBEE",
"&. c #BDDBF0",
"*. c #BDDBF0",
"=. c #C0DDEF",
"-. c #C1DDEF",
";. c #C3DFF0",
":. c #C3DEF0",
">. c #C6E0EF",
",. c #C5E0F0",
"<. c #C5E1F1",
"1. c #C7E2F1",
"2. c #C6E1F1",
"3. c #C9E2F1",
"4. c #C9E2F2",
"5. c #CAE3F2",
"6. c #CBE3F2",
"7. c #CCE4F2",
"8. c #CEE5F3",
"9. c #CCE4F2",
"0. c #D0E6F3",
"q. c #D2E7F4",
"w. c #D1E8F4",
"e. c #D3E8F4",
"r. c #D4E8F4",
"t. c #D7EAF5",
"y. c #D4E8F4",
"u. c #D9EBF5",
"i. c #DBEBF5",
"p. c #DAEBF6",
"a. c #DBECF6",
"s. c #DCECF6",
"d. c #DBEBF6",
/* pixels */
"                                                                                                    ",
"                                                        p.                                          ",
"                                                      p.t.6.                                        ",
"                                                          <.@.  w.                                  ",
"                              9.} J v l l l         s.w.6.6._ ^ ..{                                 ",
"                        <.&.{ Q J B x j h g k l k   p.7.;. .] L m Q N                               ",
"                    s.t.7.*._ E Z x j p y 0 5 < 5 k l ;.%.] E S c j L z                             ",
"                          7.o.^ G c j p y 0 9 5 < > > h x _ U Z x j p v l                           ",
"                      p.8.<.o.^ I N x h p e 9 5 5 5 < : 9 g N m j f u q j                           ",
"                      a.w.4.*.{ U c h i y e 9 9 5 5 4 < > > p j j u i q 9 z                         ",
"                        7.D h h p 0 9 7 5 7 5 5 < < < 5 4 < : r p i q q 4 g           s.            ",
"                      k h 5 : > > < > > 2 3 3 1 : : 5 < 5 5 < : q e 9 9 4 < k   a.p.  t.            ",
"                  k s < > < < < < 5 5 9 8 9 9 7 1 1 = = 5 5 9 5 : 9 9 5 5 < h 8.t.0.  7.<.          ",
"              k l 9 5 5 5 5 4 5 4 2 2 3 < - - 3 t t 7 = $ < 7 9 5 < 4 5 4 > 5 D <.-.7.-.&.          ",
"            z c q 0 9 9 5 5 4 < < = % # # # + $ $ $ 8 8 1 # , 0 7 4 5 4 4 < : h %...%._ {           ",
"          N U p u y e 9 9 4 4 : < > 3 8 7 3 1 , , $ # = 7 1 # & 0 3 : < 5 4 : h ] ^ Q E ^ 7.        ",
"         .^ j j f u i e 9 < 1 3 8 t 0 1 & & % = < , : + % 3 , $ 6 8 , < 5 2 > p U U G Z L  .        ",
"      w. .c x x j j i q : 5 6 t 6 $ + + % = < 3 1 , 5 6 % & < % $ t > = 2 3 > e c N c x m K         ",
"        ~ U S N m j r : 4 9 0 - $ % = = 6 0 d x S E I y p = , : + 8 3 % 4 5 > 9 d x j j l m         ",
"      %._ ' E U Z p > < 7 q < # - < > 3 d ' :.0.<.-.%.%.x x > , + 1 8 $ 2 9 < 5 p h d p j l         ",
"    6.<.6. .{ ~ s < > 5 9 5 + 1 3 % = x I ] -.        r.=.I u 3 $ = 6 + < 9 4 5 y u p y f l         ",
"  t.t.  6.;.%.v 7 > 4 7 6 $ 3 6 + % p x =.                ' _ 8 = % 3 $ - 9 5 9 e e e 9 s k         ",
"    p.  w.8.*.h > < 5 5 : = 8 $ . 5 y =.q.                -.-.i < & 1 + - 9 5 6 0 9 9 5 k           ",
"        a.t.z > < 4 5 5 : 6 8 . % 5 G @.                    7.j 5 = , $ 3 6 < 5 6 5 5 2 k           ",
"            h > 4 5 5 , < y + X = < W =.                    :.Z 1 , : $ y 3 : < 5 5 4 5 l           ",
"          k 9 < 5 5 5 : 3 t + % , 6 c -.                    -.E < > $ $ t < : < 5 4 > h             ",
"          k < 5 5 9 9 < 6 3 o % = 3 j 0.                    %.G 5 : + 8 7 - < 5 < < < l p.a.        ",
"          k 5 9 9 0 9 5 9 , . = & < p -.-.                q.%.y 6 # = 8 = = < 5 < > h -.7.w.  i.    ",
"        l s 9 e q y 6 5 9 , X , $ : 9 _ ^                 =.x p % % 6 3 + 3 5 2 > 9 z *.;.6.  w.t.  ",
"        l f y i y y 5 4 9 < O 1 & % 3 u I -.q.        -.' I x = & 3 1 + < 9 5 > > g ^ ]  .6.<.6.    ",
"        l j p d f p 5 > 9 3 + 6 1 # : : x x =.@.-.:.7.-._ u = - < - # , 9 9 < > p S U Q ] ] @.      ",
"        m j j j x h 5 : 5 5 $ 1 0 # : , = p y G E Z j i 9 5 , = & $ & 0 9 5 > e j c N S L ^         ",
"        J m x m Z x 9 ; 4 2 : : t $ & < & % 7 5 < 1 3 < = % + + # 6 t 6 5 > q p j j x x N  .q.      ",
"        { L Z G I U e * < 4 2 , 7 6 & , 3 $ + : : , : & % = - t t 7 3 3 > 9 e u p f j j ^ ]         ",
"        7.^ U ^ ^ ] r * : 4 < : 5 t = $ 1 7 = # $ : , 1 5 7 8 5 : < = 5 4 9 9 q y p p L N           ",
"          { ' %.o.%.e @ ; 2 2 5 1 7 0 < $ 3 8 8 $ $ # + + + # % = < < 2 5 5 9 9 9 e v z             ",
"          &.@.7.<.6.z > ; < 5 4 > 5 9 9 3 % > 6 t t 1 , , 1 4 4 2 < > > < 5 5 5 9 l l               ",
"          6.6.  7.w.9.w * > 5 9 9 > 5 6 5 5 , , 1 3 7 5 5 1 4 > > : > ; ; > , g k                   ",
"            t.  a.s.  w ; > 5 q e 0 > < 5 6 < 4 , : < < < : ; ; @ * @ @ 4 h k                       ",
"            p.          w > 5 9 i i r > < 4 5 4 < 4 5 5 5 4 < 5 9 i g k D 7.                        ",
"                        r 2 5 q p j j i > > < 4 5 5 9 9 0 y p h c U ] %.<.t.a.                      ",
"                          a 9 e p j c S s 9 : < 4 5 5 9 e u h x c I _ o.-.0.p.                      ",
"                          g l y d x m E ^ v f < > < 5 9 y y d j c G Q o.0.                          ",
"                            k J j x G E { %.*.l g 9 < 5 8 y p j x S E ] @.6.t.s.                    ",
"                              B Q m U ]  .;.7.p.  k k k s h h j c L Q { &.<.                        ",
"                                { .._ _ 6.6.t.s.        l l l c K  .7.                              ",
"                                  w.  @.,.                                                          ",
"                                        6.w.p.                                                      ",
"                                          t.                                                        ",
"                                                                                                    "
};
