/* XPM */
static char *_5ab038e62704d4ad96e27cad76f89ddLhksgRMrjXjCjgzF[] = {
/* columns rows colors chars-per-pixel */
"50 50 89 1 ",
"  c continue",
". c black",
"X c #010101",
"o c #020202",
"O c gray1",
"+ c #040404",
"@ c gray2",
"# c #060606",
"$ c #070707",
"% c gray3",
"& c #090909",
"* c gray4",
"= c #0B0B0B",
"- c #0C0C0C",
"; c gray5",
": c #0E0E0E",
"> c gray6",
", c #101010",
"< c #111111",
"1 c gray7",
"2 c #131313",
"3 c gray8",
"4 c #151515",
"5 c #161616",
"6 c gray9",
"7 c #181818",
"8 c #191919",
"9 c gray10",
"0 c #1B1B1B",
"q c gray11",
"w c #1D1D1D",
"e c #1E1E1E",
"r c gray12",
"t c #202020",
"y c gray13",
"u c #222222",
"i c #232323",
"p c gray14",
"a c #252525",
"s c gray15",
"d c #272727",
"f c #282828",
"g c gray16",
"h c #2A2A2A",
"j c gray17",
"k c #2C2C2C",
"l c #2D2D2D",
"z c gray18",
"x c #2F2F2F",
"c c gray19",
"v c #313131",
"b c #323232",
"n c gray20",
"m c #343434",
"M c #353535",
"N c gray21",
"B c #373737",
"V c gray22",
"C c #393939",
"Z c #3A3A3A",
"A c gray23",
"S c #3C3C3C",
"D c gray24",
"F c #3E3E3E",
"G c #3F3F3F",
"H c gray25",
"J c #414141",
"K c gray26",
"L c #434343",
"P c #444444",
"I c gray27",
"U c #464646",
"Y c gray28",
"T c #484848",
"R c #494949",
"E c gray29",
"W c #4B4B4B",
"Q c #4C4C4C",
"! c gray30",
"~ c #4E4E4E",
"^ c gray31",
"/ c #505050",
"( c #515151",
") c gray32",
"_ c #535353",
"` c gray33",
"' c #555555",
"] c #565656",
"[ c gray34",
/* pixels */
"                                                  ",
"                                                  ",
"                                                  ",
"                                                  ",
"                                                  ",
"                                                  ",
"                    ))R                           ",
"                  '''~                            ",
"                '['~)~                            ",
"               '')RR~~R PPGLLGG                   ",
"              )')PGPR~RPRLLGGGG                   ",
"             )')PGPR~RRPGGLLGGGGG                 ",
"            ~~)~CL~RPPLCvCNNxNGLGGGG              ",
"            R~~PCPLCNGNvxxeeegvNNGLG              ",
"           PPR~CCLNxggggddydydxvvGLLL             ",
"          LPPRLvCGxx000ydyyeydgvxCLLLLP           ",
"          L PLCgNxgd003000,000ydgxCLPLPR          ",
"          LGLCvdydd330,>,>>>>,0dxggNLPPRR         ",
"          GLGxxyey0>,3>=,>=>,,,0ydxgvLR R         ",
"          GGGgg00y3>>=##=##>,,,,33evNGPRR~        ",
"          GGGgd000,==#o##oo===>3ee0ygCRRRR        ",
"         GGGGgge,3,=o#ooooooo=>,0yyyxxCRRR~       ",
"         GGCNgge,,>=o#oooooo#o##>0ygCCvGRRR       ",
"         GGvvgdy3,=#oooooooooo#>,,ygvGCvLRP       ",
"         GGNxxy0,>,#oooooooooo#>330gxvGvvLP       ",
"          GCxgy0>>>=#ooooooooo#=,00edvGGvCL       ",
"          GGxeye0>=#oooooooooo#=,330dNGCvCL       ",
"        GCGNgedy3,>=##ooooooo#>>,30dvGGCvGG       ",
"        GGCGvyyde3,,=#ooooo##==,3eygNCGGGCG       ",
"         GGGLvedde3,####oo##==>3eydxNGGGGGG       ",
"          LGLCvgdy0,,>==o=#>>>,3edgxvGGCGGG       ",
"          GGLCvxxy000,>#=>>,,>3eyedvCGG  GG       ",
"           LLLCCvd303,>>,3,333eydegGGGG           ",
"            LLPLGvyyee0ey0,0eeddeyNGGGG           ",
"             PPRLvgxxgddy00gddvgdvCLCG            ",
"            PPRRPLNNNvgy0yxvxNNvGCGLL             ",
"          PPPRLLPPPPPGxgxvxvCCCGLLPLG             ",
"          PRRPGNGLLGCvvCNxCRRPLPPP P              ",
"            RRRLCCNGLPRPLP)~~~RRR                 ",
"             ~R~R~~)))~~)~~~~~~R                  ",
"               )))))~)~)~~)~                      ",
"                 )))~)))))~                       ",
"                                                  ",
"                                                  ",
"                                                  ",
"                                                  ",
"                                                  ",
"                                                  ",
"                                                  ",
"                                                  "
};
