/* XPM */
static char *_bcc28786aeb4c82abcc2b79ec528415tHL482Hzm1wWAx6Q[] = {
/* columns rows colors chars-per-pixel */
"50 50 154 2 ",
"   c continue",
".  c #2F9F3F",
"X  c #34A13F",
"o  c #3BA53F",
"O  c #43A73F",
"+  c #45A83F",
"@  c #4CAB3F",
"#  c #54AE3F",
"$  c #56B13F",
"%  c #5CB33F",
"&  c #62B63E",
"*  c #66B93E",
"=  c #6BBA3D",
"-  c #74BE3E",
";  c #79BF3D",
":  c #71C13F",
">  c #7CC23D",
",  c #008741",
"<  c #008B41",
"1  c #029243",
"2  c #0D9341",
"3  c #019B46",
"4  c #0C9D46",
"5  c #009748",
"6  c #009B48",
"7  c #149541",
"8  c #199741",
"9  c #1C9A42",
"0  c #249B41",
"q  c #2C9E40",
"w  c #06A047",
"e  c #0FA448",
"r  c #0EA84A",
"t  c #11A046",
"y  c #1DA346",
"u  c #14A749",
"i  c #1DA648",
"p  c #11A84A",
"a  c #26A344",
"s  c #2CA242",
"d  c #29AB47",
"f  c #23AB49",
"g  c #29AB48",
"h  c #34A140",
"j  c #3BA540",
"k  c #3CAB43",
"l  c #2CB14A",
"z  c #2CBA4E",
"x  c #34B449",
"c  c #38B649",
"v  c #38BD4C",
"b  c #42A740",
"n  c #46AA40",
"m  c #4BAC40",
"M  c #52AE40",
"N  c #44B144",
"B  c #48B545",
"V  c #4BBA47",
"C  c #43B948",
"Z  c #48BC48",
"A  c #5AB440",
"S  c #57BD46",
"D  c #5AB943",
"F  c #61BB41",
"G  c #6BBF40",
"H  c #4FC049",
"J  c #63C445",
"K  c #74C641",
"L  c #7AC640",
"P  c #71CC45",
"I  c #7DD646",
"U  c #84C53D",
"Y  c #89C73D",
"T  c #8CCA3B",
"R  c #8ECA3B",
"E  c #8CC93B",
"W  c #89C83C",
"Q  c #8AC83C",
"!  c #8BC83C",
"~  c #8AC93C",
"^  c #8BC93C",
"/  c #8BCA3C",
"(  c #8BCA3D",
")  c #8CC83C",
"_  c #8CC93C",
"`  c #8DC93C",
"'  c #8DC93D",
"]  c #8CCA3C",
"[  c #8DCA3C",
"{  c #8DCB3C",
"}  c #8CCA3D",
"|  c #8DCA3D",
" . c #8DCB3D",
".. c #8ECA3C",
"X. c #8ECC3D",
"o. c #8ECD3D",
"O. c #8FCD3D",
"+. c #8FCE3D",
"@. c #8DCE3E",
"#. c #8CC93C",
"$. c #90CE3D",
"%. c #90CF3D",
"&. c #90CF3E",
"*. c #91D03E",
"=. c #91D13E",
"-. c #90D13F",
";. c #92D13E",
":. c #92D23E",
">. c #92D23F",
",. c #93D33F",
"<. c #94D43F",
"1. c #94D53F",
"2. c #95D53F",
"3. c #93D33F",
"4. c #86CF41",
"5. c #82D243",
"6. c #8ED240",
"7. c #88D644",
"8. c #8BDD46",
"9. c #81DC48",
"0. c #95D640",
"q. c #96D740",
"w. c #95D740",
"e. c #94D841",
"r. c #96D840",
"t. c #97D840",
"y. c #97D940",
"u. c #97D941",
"i. c #95DC43",
"p. c #90DB44",
"a. c #97D940",
"s. c #98DA41",
"d. c #98DB41",
"f. c #99DB41",
"g. c #99DC41",
"h. c #9ADD42",
"j. c #9BDF42",
"k. c #9ADD42",
"l. c #94E246",
"z. c #9CE043",
"x. c #9CE143",
"c. c #9DE143",
"v. c #9EE243",
"b. c #9EE344",
"n. c #9FE444",
"m. c #9FE544",
"M. c #9EE344",
"N. c #9EE947",
"B. c #A0E644",
"V. c #A0E645",
"C. c #A1E745",
"Z. c #A0E644",
"A. c #A4EC46",
"S. c #A7F047",
/* pixels */
"                                        T   ' '     T ) ' /                                         ",
"                                      =.m.n.y.0.'   / 2.2./ T                                       ",
"                              @.' T '   ' / T =.=.@.T T T / ' T                                     ",
"                            C.T             ' T T 2.2.2.=.T ' =.'                                   ",
"                        / h.'         / ' /         / ' ' 0.y.=.' =./     '                         ",
"                      ' 2.'       T / '                       / =.' T h.    @.'                     ",
"                    / '         T         ' T ' '                       '     y.=.T                 ",
"                T C.T               T '       =./ ' '                   / A.T T =.b.                ",
"              ' / '     / / @.z.        T E       T / /     ' /           ' 0.' ' T z.T             ",
"            '       / ' ' h.T       T =.=.8.> - -       U U /     ' '         =.    T h.            ",
"          ' '     ' /   '         Y l.L K = K P P &       - 8.>     ' y.'       T   ' =.            ",
"          '       T         ' @.U ; =   % A # M #   $ J J D & K       ' n./           @.  /         ",
"        '     2.'         T 0.7.=         @               @ D D *     U T       T       y.  '       ",
"          ' x.'           N.>           k k X h h h           @ $ J *   U   '     =.    '   /       ",
"          2.T     ' =.=.@.>       n Z j h   0 d g g 0 q x .   o     &     i.2.=.    z.              ",
"      z.' / '   / z.T / >       n j h       9 8 8 8 9 y 9 q   h k     F     / h.'   T '             ",
"    ' T     y.h.3.            +                 2 2 2 7 7 8   0 v           U 0.      $.    T       ",
"    h.    ' y.T           $ n                 1 1 1 1           0 s     #   - 6.'     ' '   '       ",
"    ' /   ' T         = %       0   7 2 1 <           6 < 1 2     0           U z.'   T B.  T @.    ",
"      Q / '         - P       s 0 8 2       <           < 5 1         X         ' =.T ' '   T       ",
"      / ' T     '   =     O c 0 8       1 < 5 < , < <     < 3 1     0 h       =   y.$.j.    2.      ",
"  /   @.s.T   T T   =     k         1 < 5 < < , , <   <     < 3     9 q       = > '   j.    s.' '   ",
"  '   b.3.    C.    =   O k     2 4 < 5 < < < < , 5 <       < 3 <   9 s h         T   ' '   z.  '   ",
"'     ' '   T '     =   B X     2 1 < < < < ,     < <       < 1 1     l s         {   T T ' $.  / / ",
"T       '   ' /       m V       p 5 <     1 <   , 1 5     < 5 <     8 a   n       '   T 0.y./   / / ",
"'     ) /   E /       M N h       <     , 1 <             < 1 <   2 9     b           T ' ' T     T ",
"/   / T '   E     >     O h       1 1   , 1 , , , , ,   , < 5     r 8   h b   =       ' /       T ) ",
"T     C./   '     >     b j         < 1   , 1 < < < 5 , , 5 <   1 7 9 0       =       T T     ' /   ",
"      h.    '     U     @ j           <     5 < 1 < <   < <     1 8 d         -       z.T   T S.    ",
"  / ' A.    '   ' U     @ b       2   1 1   < < <     < <     1   8 z     M   ;     / y.    ' z.    ",
"  '   ' T /     T '     # H j       2               <       < 2   9       m   -     =.  / T T '     ",
"  /     $.'     ' s.      S j h     8 2         < <         7   0 q     n   - >   /     '   h.      ",
"  / '   $.'       h.Q       n C q     8 p 4 1           2 2   0 0         * 5.        ' E T h.Y     ",
"    '   / {         B.U       m k q       8 u 4 7 2 2 t 8     0         & :         T @.' =.@.      ",
"    y.' T ' '       0.T       m n N h           9 y i 9     q h       % I     {   ' ,.=.0.T         ",
"    / =.{ ' 2./   ' @.2.'   =       j j                   X h       A =   / T   ' h.@.  T '         ",
"    T 2./ ) z.'     0.' T   >                                     & = > / /   { A.T     ' C.E       ",
"    ' s./   ) T     / z./   U 4.              + + B Z n       A P     U       2./       E z.T       ",
"      / 0.    '         y./   m.U       & &                 = 9.          ' ' '         ' =.        ",
"      ' s.0.    '   '     C.'   / y.U       & *         - - -         2.2.$.h.T         n.T         ",
"        / ' '   T   T       /     ' h./ Y                     ' / T T ' @.' T Q /     ' T           ",
"          T / n.T ' T h./             T T ' /               ' 0.E ' ) s.T     A.    ' y.            ",
"              ' 2.y.@.' n.T         '               ' / ' / '     z.@.T     2.T   =.T               ",
"                / ' T     / n.'     / ' =.T ' ' T     T                 T =.' T h./                 ",
"                  T   T     T z.'       T ' T C.T                     ' @.  ' t.0.T                 ",
"                    T ' ' T   T / ' T       / T ' / E / T T ' T             =.T E                   ",
"                        T =.j.'   ' A./       ' h.T ) Y ' /           / ' A./                       ",
"                              '     T ,.'     / ' '                 ' A.T                           ",
"                                        T ' /       $.' / ' T ' / E T                               ",
"                                              T /                                                   "
};
