/* XPM */
static char *_8bf65c297f04294c368bcbe3697725eTQIcGVjrWH20RqBg[] = {
/* columns rows colors chars-per-pixel */
"50 50 228 2 ",
"   c continue",
".  c black",
"X  c #340000",
"o  c #590600",
"O  c #54000D",
"+  c #730012",
"@  c #712A0E",
"#  c #6A0021",
"$  c #673F32",
"%  c #584200",
"&  c #00117A",
"*  c #4F4341",
"=  c #5D665D",
"-  c #766B6D",
";  c #853D00",
":  c #8A3927",
">  c #A33F36",
",  c #CA072D",
"<  c #8C4F0F",
"1  c #A15300",
"2  c #B46D10",
"3  c #BF4335",
"4  c #A76A26",
"5  c #C87D0A",
"6  c #E27C00",
"7  c #CB483C",
"8  c #D37F24",
"9  c #813E51",
"0  c #926E47",
"q  c #EF4D46",
"w  c #ED7341",
"e  c #C94F4B",
"r  c #BB8A2E",
"t  c #C6811A",
"y  c #DD871E",
"u  c #D48E04",
"i  c #E78A01",
"p  c #E99704",
"a  c #F69C00",
"s  c #F59904",
"d  c #E28C1D",
"f  c #E4951D",
"g  c #EB941C",
"h  c #EC9C1B",
"j  c #E99918",
"k  c #F29C1B",
"l  c #DEA400",
"z  c #ECA501",
"x  c #ECA805",
"c  c #FFA400",
"v  c #FDAE00",
"b  c #F8A80E",
"n  c #ECB300",
"m  c #FCB502",
"M  c #FCBA01",
"N  c #FDB50B",
"B  c #FCBB0D",
"V  c #F4B500",
"C  c #EDA415",
"Z  c #EDA219",
"A  c #E9A618",
"S  c #F6AB15",
"D  c #FDAE13",
"F  c #F4A219",
"G  c #F8AA18",
"H  c #EEBF16",
"J  c #FDB413",
"K  c #FCBC13",
"L  c #F4B21B",
"P  c #FEB419",
"I  c #FCBC19",
"U  c #F5B518",
"Y  c #DB8626",
"T  c #DF9933",
"R  c #EA9628",
"E  c #F39B25",
"W  c #F09D35",
"Q  c #DEA233",
"!  c #ECA827",
"~  c #F1A827",
"^  c #EEB226",
"/  c #FCBD25",
"(  c #FCBC2A",
")  c #F5B527",
"_  c #EDAA36",
"`  c #ECB334",
"'  c #EBB73C",
"]  c #FDBE33",
"[  c #F6B738",
"{  c #F6AA37",
"}  c #FEC600",
"|  c #FECB00",
" . c #FEC10F",
".. c #FECA0A",
"X. c #F6C000",
"o. c #FEC313",
"O. c #FCC21C",
"+. c #FECB1C",
"@. c #FFCC17",
"#. c #FED313",
"$. c #FDC523",
"%. c #FECA24",
"&. c #FDC629",
"*. c #FECA2C",
"=. c #F3C324",
"-. c #FDCB33",
";. c #FDCD3A",
":. c #F7C338",
">. c #FFD23B",
",. c #FFD033",
"<. c #FFD42D",
"1. c #E9A945",
"2. c #F1A948",
"3. c #ECB846",
"4. c #F8B94B",
"5. c #ECB859",
"6. c #F0B354",
"7. c #C19A75",
"8. c #D4AD63",
"9. c #D6B478",
"0. c #CEAF71",
"q. c #EEB968",
"w. c #F4BD65",
"e. c #E7B47B",
"r. c #FCCD44",
"t. c #FCCD4A",
"y. c #F7C745",
"u. c #FDD243",
"i. c #FCD34B",
"p. c #FFDA4B",
"a. c #FFD944",
"s. c #FDCE5D",
"d. c #F4C756",
"f. c #FCD554",
"g. c #FDDA55",
"h. c #FDD55B",
"j. c #FCDA5C",
"k. c #F6D252",
"l. c #FBC866",
"z. c #FDD364",
"x. c #FCDD62",
"c. c #FCDC6B",
"v. c #F9D86D",
"b. c #E9C576",
"n. c #F9CC72",
"m. c #FEDC74",
"M. c #FBDD7C",
"N. c #FBD774",
"B. c #FBE16B",
"V. c #FEE466",
"C. c #FCE272",
"Z. c #FCE47C",
"A. c #FEE97B",
"S. c #005A9E",
"D. c #006F98",
"F. c #7A7DA5",
"G. c #2584AE",
"H. c #5D8EAC",
"J. c #7F8EB7",
"K. c #709BC7",
"L. c #999A97",
"P. c #97938C",
"I. c #A18080",
"U. c #939CA6",
"Y. c #809DB9",
"T. c #A09AA2",
"R. c #99A2BB",
"E. c #8BA8B3",
"W. c #A3A7B7",
"Q. c #A7B3B6",
"!. c #AEADA9",
"~. c #BBB190",
"^. c #C7AE8C",
"/. c #DEBD9F",
"(. c #C2BBAE",
"). c #D9C58B",
"_. c #DDC191",
"`. c #F1CE83",
"'. c #FADA85",
"]. c #F1D898",
"[. c #FCE583",
"{. c #FCEA85",
"}. c #FCE38D",
"|. c #FAE98A",
" X c #FEF08F",
".X c #FDE595",
"XX c #FCEE94",
"oX c #FCE59B",
"OX c #FCE99C",
"+X c #FEF396",
"@X c #FCF49C",
"#X c #D8C4A8",
"$X c #D3C6B6",
"%X c #ECDBA7",
"&X c #FDEFAC",
"*X c #FBE9A3",
"=X c #FFF2AD",
"-X c #FDF6A8",
";X c #FDF5B3",
":X c #FFF8B9",
">X c #F5EBB3",
",X c #9DABCC",
"<X c #B4B8CA",
"1X c #B8C4C8",
"2X c #BAD0D8",
"3X c #9AD5EF",
"4X c #ACD4E4",
"5X c #B1D1E6",
"6X c #BAE7FB",
"7X c #ADE1F7",
"8X c #D7D2CC",
"9X c #C7CDDC",
"0X c #D1CCCE",
"qX c #FFFDC3",
"wX c #FCFFCA",
"eX c #C5D9EA",
"rX c #D6DCE0",
"tX c #D9E3EC",
"yX c #DEEDF6",
"uX c #D6E9F6",
"iX c #CDEEF8",
"pX c #E3E7EB",
"aX c #E2EAF2",
"sX c #E4FAFF",
"dX c #E8F9FD",
"fX c #FDFFFF",
"gX c #F2FAFA",
"hX c #F3EDEB",
/* pixels */
"                                                                                                    ",
"                                                                                                    ",
"                                      y h z p u                                                     ",
"                                    f +.} ;.XX-X5.                                                  ",
"                                  y @.%.o.x.-XwXqXb.                                                ",
"                                  Z +.*.;.j.{.-XwX:XR                                               ",
"                                  S %.;.i.g.B.|.;XqXq.                                              ",
"                                  I *.;.i.x.j.C.+XqX`.                                              ",
"                                  O.%.;.p.j.j.h.Z.-Xn.                                              ",
"                                f o.$.-.>.i.i.i.B.A.`                                               ",
"                                h B o.$.-.;.;.;.;.%.p                                               ",
"                  Y 1.4.4.4.~ g E k U o.O.$.$.$...o.                                                ",
"              d ~ i.g.i.r.;.&.K D F f C K K K K o.g                                                 ",
"            h O.O.O.M M M m N K N N ) ~ p b P K g                                                   ",
"          F K B B K K I I o.I K K K ;.f.d.R j R                                                     ",
"        F K B K K o.o.O.O.$.O.O.I I -.i.B.N.R             p s T 4 8 a s i                           ",
"      g o.B K I O.t.h.=.%.&.%.=.$.O.&.r.f.{.{.i     E s c [ W ; < ; q.n.4.a s d                     ",
"    Y o.K K O.$.&.x.[.;.*.,.,.*.&.$.$.;.k.c.+Xl.6 b v 4..X].0 9.*X%X>XqX;XoXl.c k                   ",
"    Z B K K $.&.;.C.|.` ` :.:.>.-.&.$.&.i.j.{.XXE { '.&X:X)._.:X&X;X;X&X&X;X>X.XQ t Y               ",
"    o.K K $.&.*.i.{.C.-.y.3.' ` ;.;.*.$.;.f.m.@Xw.b.=XoX.XOX*XOXOXoXoXOX*XoX*X*X0 o t k             ",
"  f o.o.O.$.*.*.j.C.i.u.p.g.p.y.` ^ -.*.$.t.x. X`.5.|.'.|.}.M.l.M..X}.}.'..X}.'.'.b.< K E           ",
"  Z o.K O.$.-.;.u.i.k.g.g.g.g.x.B.l._ H *.$.f.{.'.6.M.M.M.l.6 4 2 ` M.M.M.M.M.[.}. X8.p I d         ",
"  C  .o.O.*.;.>.u.p.g.j.x.x.g.g.B.{.[.3.x O.$.c.N._ v.v.j.u K.7X3XU.' m.N.v.m.z.z.m.N.d.N G         ",
"  C o.I =.&.-.;.g.k.g.V.B.V.x.k.j.v.{.+Xd.z K &.{ 3.h.h.n Q.sXyXdX6X~.u.z.h.p 5 5 z j.c.] m E       ",
"  F  .K $.*.&.i.C.j.g.V.V.B.x.g.i.j.C.|.+X' x M ! M.v.*.8.yX0XJ.1XdX2X=.k.l L.4X4XL.l k.t.m P       ",
"  Z o.K $.*.-.f.[.d.k.j.x.x.j.g.i.k.x.C.+X{.z R ( y.z.} #XeX9X1XD.pXtX:.| 0.eXyXgXdXQ.n t.I J k     ",
"  h @.o.$.$.;.x.XXd.3.3.y.j.j.k.i.r.f.c.C.+Xd.p +.V H V /.eXH.% G.eXtX' | #XtXF.W.fXsX0.} ( N D     ",
"  y o.K O.$.&.Z.Z.>.p.k.d.' :.p.>.;.i.j.c.{.M.x &.u.y.F { #XS.U.J.yXeX=.<.^.uXP.& pXgX0XV ( N P g   ",
"    J B K $.O.r.;.;.>.j.A.Z.5.^ r.-.*.i.j.C.N.A -.y.i.( b m 7.,XtXsX(.+.>.9.G.= R.9XfX2Xx $.N K k   ",
"    f @.K O.$.O.&.;.;.;.k.Z. Xd.A *.$.&.t.V.y.C ) ^ ^ ^ P $.| 8XiX4X3.g.g.:.W.K.R.hXdX1XV / N N k   ",
"      F  .K O.$.$.*.*.-.;.i.C. Xd.z %.B o./ j / $.-.:.' [ y.#.b.Q.8.p.x.j.>.b.9XyXsX6X^.m / B J F   ",
"        P  .K O.$.$.$.&.$.-.i.C.A.! U O.U j U %.*.-.>.:.i.g.V.k.=.V.B.x.g.g.#._.5X$X_ a ~ J B J F   ",
"          P  .K o.I O.$.$.O.$.i.C.d.i ! C I O.$.%.*.;.u.Q y.g.B.v.B.j.j.g.k.i.X.z v c [ K B N J F   ",
"            Z o.o.K o.K K I B I r.[ s P B K I O.&.-.;.a.u I.`...a.g.x.j.z.j.k.k.-.:.) ` :.B K J F   ",
"              d S o.o.K B K K  .M ! ) N K K K $.&.*.-.u.n - eX$X5.o.X...&.*.u.u.r.:.! L S K N P k   ",
"                  y C S P P J F 6 2.f.P N K K O.$.&.-.>.y.; E.sXeX0X/.e.6.4._ C ^ ) O.O.K K J K g   ",
"                                  R c.t.N B K O.$.$.*.;.>.r . !.gXgXsXyXyXtX9 u ;.$.O.K K K J J     ",
"                                    w.M.y.N K K O.$.$.*.-.` # . - 8XgXgXgXL.1 >.%.$.O.K K N J k     ",
"                                    W .XN.] M I K O.=.*.*.&.w e . . * - $ o T *.I O.K K K J P g     ",
"                                      l.oXz.( m I K O.$.$.<.! q 7 3 X X o : L +.O.K K J N J k       ",
"                                      i oXOXs.( M I o.O.$.$.%.8 , q 3 @ O t O.I K K B J J P         ",
"                                        W &XoXs.( M K K K I O.$.Y , , + 4 I O.K K K J J K g         ",
"                                          2.&X.Xs.) N K K K K L ^ A f j I o.K B K N D P k           ",
"                                            2.*X.Xz.( N K K K J L L P L D K K J J D P h             ",
"                                              g '.}.z.( m J J B K J U J J J J D D P g               ",
"                                                6 2.m.z.] D J J J N N J D D J P F d                 ",
"                                                    i 2.y./ J P P D P P P G k g                     ",
"                                                          R k k k k k g g                           ",
"                                                                                                    ",
"                                                                                                    "
};
