/* XPM */
static char *ae5af201bcba4cd2d980c62ca127d9d9bViXGmURM8Gv4TTK[] = {
/* columns rows colors chars-per-pixel */
"50 50 254 2 ",
"   c continue",
".  c #100D10",
"X  c #360100",
"o  c #291715",
"O  c #371D17",
"+  c #320D08",
"@  c #3E2018",
"#  c #092624",
"$  c #4A0400",
"%  c #461706",
"&  c #551805",
"*  c #461C16",
"=  c #57160F",
"-  c #690D00",
";  c #482318",
":  c #582718",
">  c #5B2607",
",  c #652C16",
"<  c #68341D",
"1  c #77371C",
"2  c #732C06",
"3  c #5B3528",
"4  c #562E24",
"5  c #6A3724",
"6  c #763C23",
"7  c #7B4531",
"8  c #765143",
"9  c #970000",
"0  c #8C0E00",
"q  c #A90000",
"w  c #B90100",
"e  c #AD1900",
"r  c #843A19",
"t  c #8E3408",
"y  c #B22E00",
"u  c #833D26",
"i  c #B42530",
"p  c #CB0100",
"a  c #C30000",
"s  c #D30000",
"d  c #DB0000",
"f  c #CE0B0E",
"g  c #D43502",
"h  c #C82D00",
"j  c #CF2D34",
"k  c #D10D18",
"l  c #8B421D",
"z  c #944618",
"x  c #A5491B",
"c  c #AD530B",
"v  c #884626",
"b  c #974C26",
"n  c #9B5828",
"m  c #945537",
"M  c #8A4D36",
"N  c #A7592A",
"B  c #AB5332",
"V  c #9D6130",
"C  c #B16835",
"Z  c #BF6200",
"A  c #D1480D",
"S  c #CC4F34",
"D  c #CE692F",
"F  c #D17000",
"G  c #9D3A76",
"H  c #A93778",
"J  c #94564F",
"K  c #BA5A4F",
"L  c #926E54",
"P  c #A76848",
"I  c #B56846",
"U  c #B27358",
"Y  c #984778",
"T  c #98547C",
"R  c #8E416F",
"E  c #A3477D",
"W  c #AA576E",
"Q  c #B46F6E",
"!  c #906C66",
"~  c #CB5453",
"^  c #D37C56",
"/  c #C87251",
"(  c #CE6F6E",
")  c #E67175",
"_  c #E45157",
"`  c #E33C45",
"'  c #D38000",
"]  c #E39301",
"[  c #9B8871",
"{  c #A88E7D",
"}  c #BF815D",
"|  c #C4825B",
" . c #C58156",
".. c #CB9054",
"X. c #CA8964",
"o. c #D79C73",
"O. c #D09171",
"+. c #DBA578",
"@. c #D0AD73",
"#. c #E4AA5D",
"$. c #B93C82",
"%. c #C63A87",
"&. c #9C5D83",
"*. c #9B5881",
"=. c #A84B82",
"-. c #B64C8A",
";. c #A85788",
":. c #B5568D",
">. c #BA5A92",
",. c #BD4F91",
"<. c #9F6085",
"1. c #A4638A",
"2. c #A8658D",
"3. c #AD6992",
"4. c #B56394",
"5. c #BD6499",
"6. c #BC6B9B",
"7. c #B76696",
"8. c #AC7797",
"9. c #B5779C",
"0. c #B47388",
"q. c #BB79A1",
"w. c #CB4993",
"e. c #CB5C9B",
"r. c #C55696",
"t. c #C74D8F",
"y. c #C5679D",
"u. c #C8759A",
"i. c #CD7895",
"p. c #DC5BA8",
"a. c #CC58A2",
"s. c #ED5DB6",
"d. c #EB5BB7",
"f. c #E751AF",
"g. c #CB6CA5",
"h. c #C965A2",
"j. c #DA65AA",
"k. c #D667A8",
"l. c #C273A3",
"z. c #C879A7",
"x. c #D475AB",
"c. c #DA79B3",
"v. c #D96BB1",
"b. c #ED64B8",
"n. c #ED6CBA",
"m. c #E669B5",
"M. c #ED72BC",
"N. c #EC7ABE",
"B. c #E377B7",
"V. c #F174BD",
"C. c #ED72B1",
"Z. c #EE7CC1",
"A. c #EE72C1",
"S. c #F277C3",
"D. c #F868C6",
"F. c #B38F8F",
"G. c #B9A497",
"H. c #B7A28E",
"J. c #BC84A6",
"K. c #D59695",
"L. c #CE8D91",
"P. c #E39797",
"I. c #D6A78F",
"U. c #E6B789",
"Y. c #ECBD93",
"T. c #EABD99",
"R. c #E1AA8D",
"E. c #C384A9",
"W. c #C589AD",
"Q. c #CA84AA",
"!. c #D688A6",
"~. c #D899AA",
"^. c #CA8CB1",
"/. c #CA87B1",
"(. c #D885B6",
"). c #D795BA",
"_. c #CB95B0",
"`. c #E586BC",
"'. c #E792B3",
"]. c #CAA9A9",
"[. c #CCB8B6",
"{. c #D9B9BA",
"}. c #D3ABAB",
"|. c #E5A7A7",
" X c #E7BBBA",
".X c #E5AFAF",
"XX c #E7C687",
"oX c #EEC49A",
"OX c #F2C69D",
"+X c #E9D39A",
"@X c #DBC6B1",
"#X c #F4CDA4",
"$X c #F1CDA8",
"%X c #F5D2AB",
"&X c #F7D2A9",
"*X c #E6D6BA",
"=X c #F7DAB7",
"-X c #E9C7AF",
";X c #F7E0B8",
":X c #DCC18B",
">X c #EC84C2",
",X c #EC8BC4",
"<X c #F183C4",
"1X c #F18AC6",
"2X c #F18DC9",
"3X c #F585C9",
"4X c #EC9CCB",
"5X c #EA96C7",
"6X c #F19DCD",
"7X c #F495CC",
"8X c #FF8CD2",
"9X c #F59CD2",
"0X c #FC96D2",
"qX c #DEAEC2",
"wX c #E9A1CC",
"eX c #F3ABD4",
"rX c #F6A7D5",
"tX c #F3B1D6",
"yX c #F5B4D9",
"uX c #F6B8DB",
"iX c #EFABD0",
"pX c #F6B9E1",
"aX c #DBC9C4",
"sX c #DED6D6",
"dX c #E8CBC7",
"fX c #E8D7C9",
"gX c #F5DBC5",
"hX c #F5C3DE",
"jX c #F2C7D8",
"kX c #E7DBD9",
"lX c #F4D6D7",
"zX c #F1C9CB",
"xX c #FAE2C5",
"cX c #FBE5CB",
"vX c #F8E7CB",
"bX c #EAE3DA",
"nX c #F7E8D7",
"mX c #F7EBD4",
"MX c #F5DBE4",
"NX c #F7D5E2",
"BX c #F7CEE6",
"VX c #EEEAE5",
"CX c #ECE6E5",
"ZX c #F1EBE4",
"AX c #F3EEEB",
"SX c #F8E9E6",
"DX c #F5F2EE",
"FX c #FAF3EC",
"GX c #FAF2E5",
"HX c #F5F4F2",
"JX c #FAF5F3",
"KX c #FAF9F5",
"LX c #FDFDFC",
"PX c #F9F8F7",
/* pixels */
"                                                                                                    ",
"  8.&.T *.&.&.&.1.;.2.2.3.4.7.7.5.6.6.5.5.6.h.6.q.l.q.q.q.l.q.q.9.9.9.3.9.3.2.2.1.1.<.<.&.&.&.&.1.  ",
"  8.1.*.T *.;.1.2.3.4.7.5.y.l.g.g.x.k.x.(.(.`.).5X).).).).(./.z.y.6.4.3.3.2.2.1.1.1.1.<.&.&.&.&.2.  ",
"  F.&.*.T *.;.;.;.>.5.y.y.a.k.k.j.v.`.5X4X4X4X4X5X4X,X,Xc.k.k.h.y.y.5.7.7.7.7.4.2.2.2.1.8.2.1.1.8.  ",
"  1.;.T T ;.;.4.5.g.g.x.x.c.B.B.5XeXeXrXeXeXeXtXeX6X2X1X>X5XwXwX4X5X).).).).^.E.W.J.J.9.3.8.8.8.9.  ",
"  1.3.;.:.>.5.h.k.v.B.B.N.M.<XrXyXtXrXrXtXyXtX1X1X1X2XrXyXeXrX6X6X6X4X5X`.(.x.z.z.l.q.4.Y 8.q.8.J.  ",
"  2.6.7.>.y.g.v.c.B.M.Z.V.3XyXpXyXuXpXpXpXrXS.eX).,XrXrX3XS.V.S.S.V.n.n.m.m.v.k.g.y.4.;.Y 3.q.F.J.  ",
"  3.q.6.h.h.v.c.M.,X~.!.i.!.).~.~.)..X.X.X!.'.kX[. X).i.i.i.i.!.!.!.~.~.!.u.u.6.y.h.>.:.=.8.J.9.J.  ",
"  q.z.z.g.p.v.m.).O.x c y q q e w a a g g g h s i.L.g s s f S S A / A h h y q e b W y.>.=.9.J.J.W.  ",
"  l.c.c.v.j.b.n.I.9 i.PXsXL.LXkXj ( _ d j ) ) MXnXdXd ) _ ` JX-XMXsXp ( i w K ( i t >.y.-.8.J.q.J.  ",
"  F.)._.!.L.i.!.o.9 ( LXHXCXPXCX].CXHXK.NX{.MXLX( j  XAXSXdXLXsXLXaXkXAXlX{.AXHXK.9 F.W.2.F.G.J.].  ",
"  [ H.F.[ L L [ @.q F.AXsXPXsXkX{.CXPXdXPXd FXCXs d nXdXMXfXFXi.PX}.PXCXkXbXDXkX].9 [ [ L F.H.H.G.  ",
"  y.(.x.g.a.a.h.H.9 E.LX].[.kXHXaXkXkXK. XdX XLXlX X|.SXkX~.bXK.CX~. XkXqXK.kXsXF.9 3.6.G 2.8.8.J.  ",
"  `.7X2XZ.A.V.n.I.c i O.i w ( ( a p p s d d d ) |.~.d d d d d d s p a a q w w q q M c.c.,.E.^.J.^.  ",
"  B.8X2XZ.n.n.n.v.L.} N B B 0 y K I / / ^  .^ D A h S B S S / / ^ ^ X.| U U J B J q.`.x.-.z.W.J.W.  ",
"  B.8X2XZ.n.n.M.A.m.x.l.h.y.g.g.y.Q._.).).)._.^._._.^.W.E.Q.z.x./.c.!.z.x.x.g.z.B.,X`.c.,.z.W.J.^.  ",
"  M.8X1XV.n.n.M.V.V.A.V.V.V.V.Z.<XV.V.2X7X9XrX9X9X0X0X7XrXtXrXpXyXrXrXyX3XS.S.3X>X>X`.c.>.z.W.E.^.  ",
"  M.8X2XZ.M.n.b.s.s.s.b.b.n.b.b.b.V.n.b.b.n.Z.<X2X2X2X1X9XuXyXuXtXyXhXBXuXuXuXuXuX4X5X(.>.z.W.E.^.  ",
"  M.8X1XV.s.Z.6XtXhXNXMXMXMXMXMXlXjXuXtX6X<Xn.s.b.V.N.A.6XpXuXhXuXhXuXuXrXrXuXhXhXwX5X5Xg.6.E.E.^.  ",
"  N.8X2XtXMXFXKXPXKXKXKXJXKXKXJXPXKXKXHXHXSXMXjX6XZ.n.V.V.n.n.b.s.M.2X6XtXtX6X6XiXwXwXwX(.z./.E.^.  ",
"  n.0XJXKXKXKXFXFXFXGXGXmXmXmXnXnXnXSXGXDXHXKXHXDXSXuX1XS.1X1X<XtXhXuXtX6X2XN.<X2X5XwXwX(./.E.E.^.  ",
"  `.PXLXJXFXGXGXGXmXmXcXcXvXxX=X=X=X=XxXgXvXnXFXFXHXHXAXyXM.M.2XyX9Xn.s.b.n.n.<X,X,XiXwX(.z.E.E.^.  ",
"  aXLXJXGXcXcXcXgX=X&X&X&X#X#X#XOX%X%X=X=X%X%X=XvXGXFXHXJXSX2Xf.1XrXZ.n.M.C.N.1X4XyXeX`.h.6./.q.^.  ",
"  I.LXJXcXcX;X&XOXU.+.o.O.X.X.X.o.+.U.Y.OX&X=X&XOX#XcXSXHXKXFXiX1X<XZ.<X<X2XrXeXrX4XB.a.>.h.z.q.z.  ",
"  L.mXGXcX;X&XR.X.| | | | o.+.R.+.o.o.o.U.OX&X&X%XoXOX=XGXFXKXDX`.n.2X6X9X6X6X2X2X`.m.j.r.>.u.7.q.  ",
"  S.Y.*XcX#X+. .| | | X.T.xXcXcXgXgX$XU.o.U.OXOX#X#XOX%XxXDXFXDXkXBX2X3X2X2X2X2X7X`.j.k.e.>.5.4.6.  ",
"  s.uX@XU.:XX.^ | |  .U.xXmXcXgXgXcXgX&XY.U.Y.OXOX#X&X&X=XGXKXDXkXLXLX6XV.Z.Z.<X<XN.m.k.e.r.5.4.5.  ",
"  n.0XKX@X....X.X.U | +.$XxX=X=X=X=X=X&XT.Y.Y.Y.oXOX=X%XcXGXKXbXdXFXDXAXV.n.n.n.n.C.m.j.e.>.5.4.6.  ",
"  Z.S.SXPXbX@X@.....X...I.oX%X-X&X#X#X$XoXY.U.Y.oXOX=X%XxXGXmX-Xd.zXbXVXiXs.M.B.M.B.m.j.e.r.y.>.5.  ",
"  Z.D.NXHXHXGXbX*X:X@.@.@.U.U.XXOXoX#XoXOXOXY.OX#X%X=X=X;XmXgXN.b.tXVXVXuXs.M.M.n.m.m.j.y.r.5.4.5.  ",
"  <XC.{.KXDXDXVXAXCXbX*X+X+XXXXXXX:XU.+.@.XXXXXXXX+X=XvXGXJXZ.b.f.jXGXbXjXb.M.M.M.M.C.j.e.r.y.4.7.  ",
"  i.v F.VXKXHXDXAXVXCXCXCXbXbXfXfX*XfX;XfXvXnXmXGXKXLXLXLX7Xf.M.jXDXVXbXjXs.Z.Z.N.>XN.c.g.r.5.>.7.  ",
"  V x ].bXbXPXHXDXVXVXVXVXVXAXVXAXAXHXHXLXLXLXLXLXLXLXLXhXf.iXSXKXJXFXGX6XC.'.rXpXpXrX7Xc.h.6.>.7.  ",
"  J t H.JXbXkXVXHXDXAXAXDXAXDXDXFXAXJXJXJXPXLXLXLXLXLXJX4XNXKXFXJXLXDXiXS.( ' #.OXnXPXMXiXz.h.7.4.  ",
"  3 X F.AXDXVXbXbXZXAXDXFXJXKXJXJXLXLXLXLXLXKXFXLXPXFXlXAXJXJXLXKXhX`.s.3Xx.0 Z F ] Y.lXqXu.6.7.4.  ",
"  3 $ G.CXCXVXAXVXZXnXZXnXZX[.[.aX X-X-XzXfX XR.kXGXJXDXJXLXKXlX1XV.V.`.<XrX].z #.#.] F Z c Q 7.>.  ",
"  m t F.].[.sXCXAXAXHXDXDXVXL F.].L.K.K.P.|.|.-XKXLXPXHXLXSX.XC.o.O.S K K ~ |.U.#.D C u 2 J 7.4.>.  ",
"  M M P z t F.aXkXZXAXDXHXLXSXfXfXdX=XzXlXnXSXLXLXLXJXLXMXA.C. .f ~  X_ p p d A C t 2 7 W l.6.;.:.  ",
"  3 m b 2 1 $ [ aXkXZXGXFXJXKXLXLXLXLXLXLXLXLXLXLXLXKXfXb.D.P.y k }.JX|.zX) zXzXp I ).,Xc.>.>.;.;.  ",
"  n 6 2 r 1 = L ].@XkXSXAXFXFXFXJXKXPXPXPXLXPXLXLXJX{.c Q `.N.~ d P.i.P.lX_ lXP.p S z.c.e.:.:.;.;.  ",
"  1 : x C x x u ! G.].@X*XnXZXFXFXJXKXLXKXJXLXLXLXaXV U n L.7Xz./ p s k s j ( j D t :.k.r.-.;.;.;.  ",
"  o , N N C N > , V  . ...@XfX[.}.I.fXfXI.U  X[.F.U P / } m U '.c.i.Q U / I I U ! *.k.e.,.=.;.=.=.  ",
"  * = % t n * # 7 I ..+.| P P X t c C N 0 B c t - X r v m V C 2 e.m.a.>.;.=.;.5.v.,Xc.r.-.=.=.Y =.  ",
"  1 r < : b v : * 1 m M r N c N = x C ! * m I x N 5 & + 2 n / 2 W p.p.f.p.p.f.p.p.a.x.h.H G ;.Y T   ",
"  @ O , b x t 2 & + $ X , ; > n 7 > 2 M % m 7 & b < 2 * , t r l P W w.w.w.w.w.w.t.%.H -.=.G E Y Y   ",
"  * o O & > % 7 5 $ 1 ; & % . $ 3 @ 5 5 + ; o . r l r , . < 1 4 M J t.%.%.%.%.%.$.t.H G G E Y Y Y   ",
"  6 1 l b ; X P M z v , 1 z m M X o ; < 5 < 5 o O 7 b 6 : 5 6 5 > W w.w.w.w.t.w.t.,.-.-.=.E Y R Y   ",
"  5 < 5 7 O O 1 V C C M , < < 5 O O : v 3 m m 6 * . ; 4 * 1 v v r u W w.e.w.r.r.t.,.-.;.=.E Y R Y   ",
"  4 O o @ < 5 : b C m 7 n < v n z ; O ; + 7 P 8 + : 4 5 o O : 3 < u t.a.e.e.w.r.r.,.-.=.E Y R R R   ",
"                                                                                                    "
};
