/* XPM */
static char *_662c53861a94551d27490d61c635546rHofJcZN3QX24Bqa[] = {
/* columns rows colors chars-per-pixel */
"50 50 145 2 ",
"   c None",
".  c #000000",
"X  c #0E100A",
"o  c #151209",
"O  c #1A140C",
"+  c #001213",
"@  c #141511",
"#  c #1B1711",
"$  c #1C1812",
"%  c #2B190E",
"&  c #211C15",
"*  c #2D1B11",
"=  c #241E1A",
"-  c #3D210E",
";  c #25211C",
":  c #362117",
">  c #38271D",
",  c #292622",
"<  c #2C2825",
"1  c #372D27",
"2  c #322D2A",
"3  c #33312E",
"4  c #343230",
"5  c #3A3734",
"6  c #3E3D3B",
"7  c #540000",
"8  c #5F0B00",
"9  c #441E00",
"0  c #422512",
"q  c #4E2C16",
"w  c #492D1C",
"e  c #622300",
"r  c #6D3B16",
"t  c #6D3C19",
"y  c #44332C",
"u  c #51362C",
"i  c #413D3B",
"p  c #2E4400",
"a  c #365800",
"s  c #3E4E1A",
"d  c #405F00",
"f  c #517400",
"g  c #597B06",
"h  c #54720F",
"j  c #424E2B",
"k  c #44413E",
"l  c #644536",
"z  c #4E6426",
"x  c #4D6129",
"c  c #526A23",
"v  c #5E7B25",
"b  c #607A33",
"n  c #454340",
"m  c #494644",
"M  c #4C4847",
"N  c #55534E",
"B  c #565352",
"V  c #595654",
"C  c #5D5857",
"Z  c #5D5959",
"A  c #615E5C",
"S  c #607143",
"D  c #64605F",
"F  c #656261",
"G  c #696564",
"H  c #6E6B6A",
"J  c #716E6D",
"K  c #74706F",
"L  c #767271",
"P  c #7A7675",
"I  c #7D777A",
"U  c #7E7B7A",
"Y  c #86491C",
"T  c #97521D",
"R  c #975527",
"E  c #827D7D",
"W  c #5C8000",
"Q  c #6D9028",
"!  c #83807F",
"~  c #858282",
"^  c #8A8685",
"/  c #8D8B8A",
"(  c #928D8D",
")  c #93918F",
"_  c #938D91",
"`  c #969292",
"'  c #9A9595",
"]  c #9C9897",
"[  c #9D9A9A",
"{  c #A29D9D",
"}  c #A4A09F",
"|  c #A5A3A2",
" . c #ABA6A6",
".. c #ADA8A7",
"X. c #ADA7A8",
"o. c #AEA9A9",
"O. c #B2ADAD",
"+. c #B4B0AE",
"@. c #B5AFB0",
"#. c #B5B2B2",
"$. c #B9B5B5",
"%. c #BDBBBA",
"&. c #C0BDBD",
"*. c #C2C0BF",
"=. c #C5C3C2",
"-. c #C9C7C6",
";. c #CAC8C7",
":. c #CDCBCB",
">. c #D1CFCE",
",. c #D2D0CF",
"<. c #D5D4D3",
"1. c #D8D7D6",
"2. c #DAD8D7",
"3. c #DDDBDB",
"4. c #E1DFDE",
"5. c #E2E0DF",
"6. c #E3E1E1",
"7. c #E5E3E2",
"8. c #E7E6E6",
"9. c #E5E4E3",
"0. c #E8E7E7",
"q. c #E8E7E6",
"w. c #EAE9E9",
"e. c #EDEBEB",
"r. c #EEEDED",
"t. c #EFEEEE",
"y. c #EEEDEC",
"u. c #EBEAEA",
"i. c #F0EFEF",
"p. c #F0EFEE",
"a. c #F1F0EF",
"s. c #F2F1F1",
"d. c #F3F2F2",
"f. c #F1F0F0",
"g. c #F4F3F3",
"h. c #F6F5F5",
"j. c #F6F5F4",
"k. c #F5F4F4",
"l. c #F8F7F7",
"z. c #F8F7F8",
"x. c #FAF9F9",
"c. c #FEFDFD",
"v. c white",
"b. c #FDFCFC",
"n. c #FDFDFD",
/* pixels */
"                                                  #.%.=.=.*.#.                                      ",
"                                            %.2.f.v.v.v.v.v.v.j.1.%.                                ",
"                                        o.y.v.z.j.g.r.8.6.6.6.8.p.l.3.'                             ",
"                                      =.v.j.f.r.6.2.1.<.<.<.,.<.,.,.4.0.[                           ",
"                                    =.v.f.i.9.1.,.<.<.<.<.1.<.<.1.<.<.1.9.`                         ",
"                                  $.v.f.r.3.<.<.<.1.<.<.<.<.<.<.<.<.<.<.2.4.~                       ",
"                                  z.g.e.3.,.1.<.<.<.<.<.<.<.<.<.<.<.<.<.<.4.O.                      ",
"                                ;.b.y.6.<.1.<.<.1.<.1.<.<.<.<.1.<.<.<.<.<.2.:.K                     ",
"                                p.p.0.1.<.<.<.1.<.<.<.<.<.<.<.<.<.<.<.<.2.>.@.'                     ",
"                              $.b.p.4.,.1.<.<.<.<.<.<.<.<.<.<.<.<.<.2.<.>.$...$.                    ",
"                              :.b.8.,.1.<.<.<.<.<.<.<.<.<.<.1.1.>.>.=.&.O. .X.$.~                   ",
"                              2.x.2.,.1.<.<.<.<.<.<.1.1.<.>.:.=.&.#.O...O... .#.~                   ",
"                              3.p.,.<.<.<.<.<.<.2.<.:.&.$.O... . . .X.O.O. .o.O.E                   ",
"                              3.q.>.1.<.<.<.2.<.=.#... .....O.O.O.O.O. . . .O.{ ~                   ",
"                              1.4.>.<.<.<.1.=.O. . .O.O.O...| | |  .X.O.O.O.O.' ^                   ",
"                              :.4.<.<.2.>.$. ...O...{ ( ! P J J H L I ~ ( { ' { ~                   ",
"                l 0           #.5.>.<.:.o. .o. .` E G G J U ^ _ E d f h a A P `                     ",
"                7 e     [ o./ L <.4.=. .....{ E N A ` | o.#.@.#.@.` b Q c _ O.E                     ",
"                +.%.3.d.d.w.*.   .&.o...o.( A z - ( $.o.o. . . . .O.' z N  .#.G                     ",
"        / 1.w.n.z.p.g.-.2.%.>.  ^ { | @.E j v g S  .X. .o.o.o.o.O. .O.{ ' #.`                       ",
"        o.6.w.>.=.r.r.| $.$.,.$.  ` ` E B S g j ( O. .O.o.o.o.o.O. . .O.#.O.                        ",
"        3.&.3.J / 9.b.3.<.8.z.-.    { L ....^ ^ O.o.X.o.o.o.o.o.X... .O.#.K                         ",
"        1.>.u.=.8.8.u.2.2.*.4.3.    K { | @.O.O.X.X.o.o.o.o.o.X...O.#.O.K                           ",
"        :.h.u.4.8.-. .' | | 2.3.        E @.@.O.X. .o. .X. . .X.O.#. .G                             ",
"        <.f.$.o.^ | *.%.:.2.3.p.          I ' #.$.$.@.O.O.O.O.O.| ~ n                               ",
"        :.8.` o.| -.2.3.4.3.*. .                / ` ' { | { ( I A                                   ",
"          9.;.3.7.4.$.| {                           L H $ O . D { E k                               ",
"          ;.[ { {   w 8                           $.o.^ , < = ( X.G A ' E                           ",
"                      R u                     o.=.#.>.=.O.{ [ O.' 5 O.2.,.                          ",
"                      r -       %.=.=.=.%.#.| 4.@.2.6.<.2.1.1.-.^ B <.p.4.P                         ",
"                    ; + X 5 . ^ v.v.v.v.v.v.X.| $.w.6.1.1.1.>.*.| G O.9.:.(                         ",
"                    ; & & , . C <.3.3.3.3.9.~ | P . 6 i M V n P O.G $.l.,.O.`                       ",
"                    ; @ * 1 . H <.<.<.<.<.,.A F $.%.#.o.] ^ H k H G =.[  .{ { P                     ",
"                    ; @ % y . U :.=.*.&.&.$.F -.p.3.4.4.4.4.3.=.H m . . . P ' V                     ",
"                    ; $ = : . ` @.O.o.o.@.' *.x.<.<.<.<.<.<.<.=.o.V { 4.>.[ K L                     ",
"                      @ > 9 3 ]  . .O...` B ;.3.-.-.:.<.<.<.<.$. .U 9.z.4.<.#.O.                    ",
"                        r Y                 <.<.:.>.,.,.<.1.,.@.{ ] p.8.,.<.%.O.                    ",
"                        r T 0               ,.2.1.<.1.<.1.,.$.#.( #.j.w.<.1.$.O.                    ",
"                          t q               #.3.<.<.<.1.>.O.| ( . o.v.8.,.<.%...                    ",
"                                            D $.=.&.*.=.O.{ J . i ~ 6.%.;.=.o.|                     ",
"                                            L ^ ' o.o. . .P . H O.` 3 . ..$.O.E                     ",
"                                              6.| '  .O.' 2 ^ %.#.E . . M ! H O                     ",
"                                              o.%./ P P V ' ,.2.$.i o < . . . #                     ",
"                                              / ) D U | G =.2.=.#.J . = = ; ,                       ",
"                                              <.<.%.^ ^ Z K ) H Z B o $ $ & $                       ",
"                                            / / E ~ E / H U :.,.o.O . $ & $                         ",
"                                          2.q.8.2.:.] U / ] | [ ] ( ( m                             ",
"                                      G =.o.( ` [ #.} [ <.6.4.1.$.~ $.E                             ",
"                                      k ; . . . . . Z #.| ( ] +.$.L E L                             ",
"                                                      . . . . . . & .                               "
};
