/* XPM */
static char *_f8cd3d75ab14ca5ca57fc5fed8497c0XxNXzavNeU2tJ7lo[] = {
/* columns rows colors chars-per-pixel */
"50 50 240 2 ",
"   c continue",
".  c #000102",
"X  c #01040B",
"o  c #05090D",
"O  c #090909",
"+  c #000611",
"@  c #040A14",
"#  c #090D13",
"$  c #030D1A",
"%  c #03071C",
"&  c #0C131B",
"*  c #09111A",
"=  c #11141B",
"-  c #131418",
";  c #121204",
":  c #26230A",
">  c #000727",
",  c #041323",
"<  c #0B1624",
"1  c #04152B",
"2  c #09192B",
"3  c #151C24",
"4  c #141D2C",
"5  c #181D27",
"6  c #000033",
"7  c #00043C",
"8  c #010D39",
"9  c #061C34",
"0  c #0A1E33",
"q  c #041938",
"w  c #1B222C",
"e  c #172023",
"r  c #09223C",
"t  c #092238",
"y  c #1C2534",
"u  c #1B263A",
"i  c #1E293B",
"p  c #152336",
"a  c #22252A",
"s  c #242C3C",
"d  c #272B36",
"f  c #2B313D",
"g  c #380D2A",
"h  c #473239",
"j  c #5A511F",
"k  c #000245",
"l  c #011946",
"z  c #0B2543",
"x  c #0B2946",
"c  c #0C2B4B",
"v  c #052549",
"b  c #142B4A",
"n  c #1B2B4B",
"m  c #172845",
"M  c #042C55",
"N  c #152F52",
"B  c #0D345B",
"V  c #07335A",
"C  c #1C3253",
"Z  c #173659",
"A  c #1E324C",
"S  c #242E42",
"D  c #232E47",
"F  c #263144",
"G  c #2B3445",
"H  c #2B364A",
"J  c #2D394B",
"K  c #283649",
"L  c #323C4C",
"P  c #343945",
"I  c #223555",
"U  c #263C5C",
"Y  c #2A3E5B",
"T  c #293955",
"R  c #333D51",
"E  c #3F3A5E",
"W  c #332044",
"Q  c #001170",
"!  c #093966",
"~  c #123B64",
"^  c #113D6A",
"/  c #173B61",
"(  c #003772",
")  c #072B6A",
"_  c #48314A",
"`  c #3A424C",
"'  c #2B4058",
"]  c #354155",
"[  c #3A4354",
"{  c #34435A",
"}  c #3B465A",
"|  c #3C495E",
" . c #36485E",
".. c #17426B",
"X. c #03457C",
"o. c #0C4577",
"O. c #134373",
"+. c #1B4674",
"@. c #134779",
"#. c #14497C",
"$. c #1B4A7A",
"%. c #294668",
"&. c #334561",
"*. c #354965",
"=. c #3C4C64",
"-. c #384D6A",
";. c #3E516C",
":. c #254D7A",
">. c #2C537D",
",. c #355573",
"<. c #395677",
"1. c #344D74",
"2. c #434C5C",
"3. c #454C56",
"4. c #534B51",
"5. c #675157",
"6. c #7E675E",
"7. c #424D63",
"8. c #484765",
"9. c #455064",
"0. c #44536B",
"q. c #4B566B",
"w. c #4B586C",
"e. c #54596C",
"r. c #425671",
"t. c #455973",
"y. c #4C5C74",
"u. c #475D79",
"i. c #525E74",
"p. c #595E7F",
"a. c #564A62",
"s. c #6D596A",
"d. c #4D617B",
"f. c #4C6079",
"g. c #546175",
"h. c #53647C",
"j. c #5A657C",
"k. c #59677A",
"l. c #6E6974",
"z. c #8E705A",
"x. c #8C6C70",
"c. c #A2943F",
"v. c #BAA557",
"b. c #B19277",
"n. c #A38A5D",
"m. c #C6AA69",
"M. c #D1B06E",
"N. c #E5CC72",
"B. c #074980",
"V. c #134D83",
"C. c #1A4E82",
"Z. c #1B5185",
"A. c #175D94",
"S. c #255586",
"D. c #345987",
"F. c #2E5789",
"G. c #3C638A",
"H. c #2C6293",
"J. c #336595",
"K. c #3A6996",
"L. c #4C6685",
"P. c #546A83",
"I. c #5C6C83",
"U. c #556686",
"Y. c #5D728B",
"T. c #5B7189",
"R. c #557898",
"E. c #476E99",
"W. c #626E88",
"Q. c #63748C",
"!. c #68768A",
"~. c #647B93",
"^. c #6B7C93",
"/. c #657796",
"(. c #747D96",
"). c #777D8A",
"_. c #537CA4",
"`. c #586E99",
"'. c #817F99",
"]. c #6D839B",
"[. c #6B8097",
"{. c #73849B",
"}. c #78879B",
"|. c #5D83A7",
" X c #6989A7",
".X c #7B8DA2",
"XX c #7689A3",
"oX c #7C93A9",
"OX c #7A9AB8",
"+X c #6B90B2",
"@X c #818C9D",
"#X c #AB988D",
"$X c #848DA7",
"%X c #8294AB",
"&X c #8B9BAD",
"*X c #8595A9",
"=X c #8B9EB2",
"-X c #869CB4",
";X c #929BB4",
":X c #89A5BE",
">X c #8AA3BA",
",X c #88A1B9",
"<X c #93A4B5",
"1X c #93A6B9",
"2X c #96A9BC",
"3X c #9BABBC",
"4X c #9AA6BA",
"5X c #A3AFBD",
"6X c #A3B1BE",
"7X c #B3A99D",
"8X c #C3B395",
"9X c #E6CC91",
"0X c #E0C6A1",
"qX c #87A5C2",
"wX c #89A7C2",
"eX c #9EB0C3",
"rX c #9EAFC0",
"tX c #A4B4C4",
"yX c #ADBDCC",
"uX c #A9B7C7",
"iX c #B2BDCB",
"pX c #A4AEC3",
"aX c #B8C1CC",
"sX c #BAC5D3",
"dX c #BAC9D6",
"fX c #AFC1D0",
"gX c #C4C7CC",
"hX c #C2CCD7",
"jX c #CAD3DE",
"kX c #C7D2DC",
"lX c #D2D4DA",
"zX c #CDD8E2",
"xX c #D3DCE4",
"cX c #D7DEE6",
"vX c #DDE4EB",
"bX c #D5E0E9",
"nX c #E3E8ED",
"mX c #E9EDF1",
"MX c #EDF1F5",
"NX c #F6F9FA",
/* pixels */
"      x c Z Z / / <.1.%.,.,.,.,.,.,.,.,.,.u.L.,.,.,.,.,.<.,.,.<.<.,.<.,.,.:.1.%.%...' / Z x x       ",
"    x B ..>.G.R._. X X+XoXOX-X:XwXwX:XwXwXwXwX:X:XwX:X:X:XwX:X:XwXwX:X-XOXoX+X X|.R.R.G.>.+./ x     ",
"  x B +.G.K.E.|.|.|.+X+XOXOXqXqXqXqXwXqXqXwXqXqXwXwXwXqXqXwXwXwXqXqXqXOXOX:X+X+X+X+X|.E.K.G.:.B c   ",
"z B ..S.J.J.H.H.J.E.F.H.H.H.H.H.J.J.J.K.J.H.H.F.A.A.H.H.H.J.K.J.J.J.J.J.H.H.J.J.J.K.J.H.K.J.S.+.B x ",
"A Z $.G.S.S.V.V.C.Z.C.V.V.V.V.B.V.V.X.B.( V.D.L./.W.L.D.B.B.B.B.V.V.V.C.V.C.V.S.Z.V.V.Z.Z.Z.S.$./ x ",
"c ~ $.S.#.#.S.Z.X.C.G.Z.C.#.C.C.B.B.S.U./.{.W.x.0X0Xs.!.{.Q.E.Z.B.o.Z.C.B.V.V.S.#.X.#.#.V.Z.Z.$...x ",
"x B #.#.#.#.$.#.@.V.@.V.#.#.B.X.>.U.!.k.k.!.@X7X'.b.7X).l.e.U.W.U.S.( @.D.C.S.( S.F.V.@.#.Z.$.+.~ x ",
"x ..! o.#.#.o.#.@.V.^ :.:.$.<.U.h.e.k.*XgXnXMXNXlXlXNXMXcXuX@Xp.e.i.L.1.S.>.:.#.o. XG.X.@.$.#.O.B x ",
"b V R.D.( @.@.O.O.@.+.( Q q.p.9.i.;XpXfXkXjXgXgXgXgXiXgXiXsXuXpX$Xp.7.i.-.Q ( +.o.( o.@.V.^ @.^ ~ x ",
"r V T.D.o.o.O.O.O.+.) !.8Xx.a.$X;X4X*X).l.3.| K O ; R [ 4.k.!.$X;X*X@X9.x.8Xj.( +.+.O.O.^ @.^ ^ V r ",
"z Z M +.+.^ ^ O.^ O.) #X9Xx.;X4X{.q.G 1 6  .0.-.W q.=.Y 6 > < G q.!.;X$X#X9X#X) +.O.O.^ $.^ ^ ^ B x ",
"l M ^ ^ ^ ^ ^ ^ ^ %.2.x.x.'.$Xe.s L w.l C w.l =.0.U.7.m Y m 7 > > G y.$X).s.5.7.%.^ ( 1.E.( ~ ~ B r ",
"r N B ^ ^ ~ ~ ! ! q.7.Q.%X(.=.G p I i.q.A Y h.{ 9.U.i.m 8 b &.U U 1 w 7.(.;X^.8.0.! ! ! ! ! ~ / N t ",
"r c B ~ ~ ^ ! ) -.7.I.$X!.E < n 9.l 7 l t.;.T.t.t.U.t.N I v y.y.Y h.} > =.XX4XW. .L.D.V ~ ~ ! ! c t ",
"r c B B ! ~ V %.=.j.$X^.R 2.7.7 0.0.T !.Y.Y.P.M P.Q.L.%.Z u.Y.7.y.=.I m 2 } (.%Xi.9.%.) ~ ! ~ B c t ",
"t c M B B B V =.q.XX(.9.p m C I l y.h.Q.Q.P.~..X{.Q.Q.L.~ U C k %.E =.m 8 u 9.XXXX=.&.V ~ B B B c t ",
"t x C B B M Y | W.{.y.G 6 7 U v l U U.^.t.f.[.=X3X<Xh.[.[.V / h.&XI 0.T 6 1 S W.$XI.} C V B Z Z z t ",
"9 x I B Z B { q.^.Q.[ J f.%X<.k.r.U.Q.Y.{..XkX2X3X2XP.P.<X&XdX@X}.-.8 -.I c 9 ] (.XX9.Y M B Z N z 0 ",
"1 b M c B -.| W.XXi.` -.P.1X~.Y t.<XjXtX[.[.6XtXNXbX6XG.{.fX=X,.+.0.f.' i.Y.-.G i.XXi.2.T M N v r 9 ",
"2 r x v b ' ' (.^.R G *.U k.1X[.1.uXdXcX3XG.R.oXbXnXhXgX6XdX3X{.<.^.!.Y.I I &.L R ^.W.A C C M x r 9 ",
"2 t z b l 5.l.^.j.L q z h.^.-.>Xd.2XaX*XvXaX&X3XdXfXdXxX5XsXzXeXY.Y.Y.f.g.=.m ;.R I.(.s.5.l C x r 1 ",
"1 9 m k 4.9Xb./.j.0 k U.~.].1X1XT.oX3XyXmXvXfXMXjXeXzXvXsX%XdXvX6XL.6X@X{ g.h.Q.u w.U.m.N.E l 9 t , ",
"1 9 u 8 _ M.z.h.9.D i.!.' <.3XdX=XyX{.R.nXaXMXMXfX2XjXMXNXhXtXkXsX].}.Q.<X*.Y.L.1 7.q.z.m.n v H t , ",
"1 9 9 z D _ j.Q.F }.-Xy.;.-Xu.6XzXkX<X&X<X1XMXyXaXxXzXMXjXdXzXsXfX3XY..XQ.Y.[.%.S E U.e.W 8 T Q.> , ",
"< 1 q q F ' h.W.u Q.%Xd.oX].].tX2XoX-XvXvX1XtXbXNXMXdXlX1XeXxXbXfXY.3X<X&.f.-.=.7.G I.i.J m z n 9 , ",
", 0 0 9 p L j.W.G y.I.h.,XT.P.]. XoX].fXMXxXeXdXmXMXsXnXvXjX6XkX.XP.&X&Xk.r.l m R J h.i.P u > > t , ",
"$ y S 1 p H h.h.L { i.u.T.[.Q.%X.X1XXXoXbXbXdXzXMXMXfXlXNXNXvX1XhX3X~.}.h.T.Y.> D R j.i.F 1 J F % < ",
"$ 0 9 9 p F i.g.J T p.Q.7 r.1X1X! 6XjX3X1XeXzXvXvXmXxXxXvXMXdXL.6X*X1X~.' %X.Xf.7.G U.0.s > 2.] % & ",
"@ , % { n y i.W.R K z =.Z k ^.dXf.L.bXhX2XsXkXmXhXfXNXNXbXaX<X<X[. XuXk.Q.1XP.r.H R h.7.i 0 1 > 1 $ ",
"$ < > u 2 s =.j.[ H z i.U l 0.,X.X].dX2X2XjXzXfXjX<XMXxXOX<XyXdX5X.X1X^.v U.y.T H ] i.R u , 1 , , $ ",
"w f % , > p R i.} P n l U 0.Z *.[.3XyXvXjXxXnXdX,X<XdX=XfXdXtX2X~.{.I.{.-.Z n R G | y.F p $ 2 < $ @ ",
"@ $ $ p $ 4 G q.i.F { b b y.*.I ..,.<XaX<XuXvXfX|.T.].1X*X].].oX/.M > 0.%XP.8 H S q.7.s y < 0 , $ + ",
"+ @ $ $ $ p f  .d.L H { C 7 Q.r.Z V P.].P.Y.1XXX>XOX].]./.L.XX^.%.h.k.f.I.h.;.s L t.K G , , 2 $ @ $ ",
"o @ @ $ , 2 i _ e.{ s 8.n l U h.d.t.d.R.L.<.>.Y.&X{.[.Y.2X&X1.~.%.;.uX[.v y.] s 0.s._ % & $ $ , + # ",
"+ + @ @ + 4 % m.v.I R F T C l &.oX].T.&X{.{.Y.! T.Y.d.[.%XT.M -.}.^.~.y.i.y.f L E m.m.-.y . * , @ $ ",
"* + @ @ + a . v.M.a.=.d R 7.A C f.t.P.u.Q.oX[.f.u.&X[.,.L.M U Z d.;.6 q K G d *.5.M.c.k = $ < X + o ",
"& o X o X w - . h P 0.| 4 } E 6 *.*X0.d.Y..X&X].1.Y.XX].Y.V v I ' k { q.[ 4 =.7.P g 8.f . p @ o @ = ",
"@ . $ * . $ F ; 1 s R w.R w R D I r.{ -.g.*.=X&Xf..X^.h.f.h.h.c %.6 q.] 3 ] 0.G f + ` w . # $ X o o ",
". . * $ . @ & X . 4 u L y.] p L R n I ;.=.0.k.Y.P.!.k. .k.y.;.c  .R J & R 7.G s < O . . @ . X X X . ",
"+ + . X o . . o X . * s J q.| 4 f [ K T Y.' ].{.v U %.l -.*.m | [ s 5 } =.H u # . X - $ X X . . . o ",
"+ . X . . < < . X . . & y H 7.7.s a L L e.g.w.=.| w.=.L } 9.3.P a S 9.7.S y $ . o X . . . . X @ + . ",
". . o # . $ @ . . . . . o 4 s R =.V z p w f 3.3.3.3.3.3.` d 4 1 B 7.R y 5 @ + X + . 5 . . o + + < O ",
". o . G w . + . . . . . . . 4 f s z.4.R [ G i i i y y u F [ 3.5.6.r s 5 . . . . . . & 3 @ . o . . o ",
". . . & o . X . . . @ . 3 & . a 6 v.N.z.V 9.| =.=.| | | 2.Z z.N.n.> a X # . . . . . . 3 & . X . 3 O ",
"o . & < . . . X . . $ d < . . . . j c.h p d s F f F s s s p h c.j . . . . . . X $ X . & 3 X O O # # ",
". $ . G f . # . X $ # w = . . P d . . . # * @ @ @ $ @ o * - . . X - $ - ` . . o X . # - . < . . . # ",
". . . G & . . . . . . . . X . & @ ; : - 5 . . . . . & & . . ; : d = . . w X . . . . 3 d . . G 3.. - ",
"  . O 9.+ . . . . . . . . . . o o . < @ . . . X . . o . 5 # X . - = . 2.5 . O o & . . + # . 5 a .   ",
"    . . . . . . . . . # . @ + . . . o o . y e . O . O - . . & X . O . }.L . # * = . . . . O . .     ",
"      - . O - . . . . # . . . . . . . . . e & . O . X & . O o . O . . . . . . . . . . . . . #       "
};
